# xmcd
#
# Track frame offsets:
#	150
#	21924
#	43472
#	61245
#
# Disc length: 1135 seconds
#
# Revision: 0
# Processed by: cddbd v1.5.1PL2 Copyright (c) Steve Scherf et al.
# Submitted via: dBpowerAMP V4.0
#
DISCID=33046d04
DTITLE=Snoop Doggy Dogg - "Midnight Love"/"DoggFather"
DYEAR=1997
DGENRE=Gangsta
TTITLE0=Midnight Love-Radio Version
TTITLE1=Midnight Love-Instrumental
TTITLE2=Doggfather-Radio Lp Version
TTITLE3=Doggfather-Radio remix
EXTD=
EXTT0=
EXTT1=
EXTT2=
EXTT3=
PLAYORDER=
